<svg width="36" height="41" viewBox="0 0 36 41" fill="none" xmlns="http://www.w3.org/2000/svg">
<path d="M36 0L32.7203 36.4458L17.978 40.5L3.27622 36.4515L0 0H36Z" fill="#264DE4"/>
<path d="M29.9125 34.125L32.7152 2.98045H18V37.4011L29.9125 34.125Z" fill="#2965F1"/>
<path d="M7.51067 16.4998L7.9146 20.9704H18V16.4998H7.51067Z" fill="#EBEBEB"/>
<path d="M18 7.45107H17.9844H6.69901L7.10869 11.9217H18V7.45107Z" fill="#EBEBEB"/>
<path d="M18 32.7617V28.1104L17.9802 28.1156L12.9609 26.7712L12.6401 23.2056H10.2011H8.11594L8.74734 30.2252L17.9792 32.7674L18 32.7617Z" fill="#EBEBEB"/>
<path d="M23.5341 20.9703L23.0109 26.7684L17.9844 28.1142V32.7653L27.2236 30.2252L27.2914 29.4699L28.3505 17.7002L28.4604 16.4997L29.2741 7.45107H17.9844V11.9217H24.335L23.9249 16.4997H17.9844V20.9703H23.5341Z" fill="white"/>
</svg>
