<svg width="49" height="50" viewBox="0 0 49 50" fill="none" xmlns="http://www.w3.org/2000/svg">
<path d="M48.9724 11.3113C48.9905 11.378 48.9998 11.4467 49 11.5157V22.2481C49 22.3859 48.9633 22.5212 48.8937 22.6404C48.824 22.7596 48.7238 22.8584 48.6033 22.927L39.5156 28.1132V38.3926C39.5156 38.6724 39.3656 38.9306 39.1209 39.0715L20.151 49.8958C20.1076 49.9202 20.0603 49.9359 20.0129 49.9525C19.9951 49.9584 19.9784 49.9691 19.9596 49.974C19.827 50.0087 19.6876 50.0087 19.555 49.974C19.5333 49.9682 19.5136 49.9564 19.4928 49.9486C19.4494 49.933 19.404 49.9193 19.3626 49.8958L0.396705 39.0715C0.276221 39.0029 0.17611 38.904 0.106464 38.7848C0.036817 38.6656 9.54652e-05 38.5304 0 38.3926L0 6.19554C0 6.12511 0.00986829 6.05664 0.0276312 5.99012C0.0335522 5.96762 0.0473678 5.94708 0.0552624 5.92459C0.0700649 5.8835 0.0838805 5.84144 0.105591 5.80329C0.120393 5.77786 0.142103 5.75732 0.159866 5.73384C0.182563 5.70254 0.203287 5.67026 0.229931 5.64288C0.252628 5.62038 0.282233 5.60375 0.307891 5.58419C0.336509 5.56071 0.362166 5.53528 0.394732 5.51669H0.395718L9.87914 0.104537C9.99922 0.0360469 10.1353 0 10.2739 0C10.4124 0 10.5485 0.0360469 10.6686 0.104537L20.152 5.51669H20.154C20.1856 5.53626 20.2122 5.56071 20.2408 5.58321C20.2665 5.60277 20.2951 5.62038 20.3178 5.6419C20.3455 5.67026 20.3652 5.70254 20.3889 5.73384C20.4056 5.75732 20.4283 5.77786 20.4422 5.80329C20.4649 5.84242 20.4777 5.8835 20.4935 5.92459C20.5014 5.94708 20.5152 5.96762 20.5211 5.9911C20.5393 6.05776 20.5486 6.12649 20.5487 6.19554V26.3055L28.4513 21.7952V11.5148C28.4513 11.4463 28.4611 11.3768 28.4789 11.3113C28.4858 11.2878 28.4986 11.2673 28.5065 11.2448C28.5223 11.2037 28.5361 11.1617 28.5578 11.1235C28.5726 11.0981 28.5944 11.0775 28.6111 11.0541C28.6348 11.0228 28.6546 10.9905 28.6822 10.9631C28.7049 10.9406 28.7335 10.924 28.7592 10.9044C28.7888 10.8809 28.8144 10.8555 28.846 10.8369H28.847L38.3314 5.42475C38.4514 5.35616 38.5876 5.32006 38.7261 5.32006C38.8647 5.32006 39.0008 5.35616 39.1209 5.42475L48.6043 10.8369C48.6378 10.8565 48.6635 10.8809 48.6931 10.9034C48.7178 10.923 48.7464 10.9406 48.7691 10.9621C48.7967 10.9905 48.8165 11.0228 48.8401 11.0541C48.8579 11.0775 48.8796 11.0981 48.8934 11.1235C48.9161 11.1617 48.9289 11.2037 48.9447 11.2448C48.9536 11.2673 48.9664 11.2878 48.9724 11.3113V11.3113ZM47.4191 21.7952V12.8705L44.1004 14.7642L39.5156 17.3808V26.3055L47.4201 21.7952H47.4191ZM37.9357 37.9397V29.0091L33.4259 31.5621L20.5478 38.8475V47.8622L37.9357 37.9397ZM1.5809 7.55029V37.9397L18.9669 47.8612V38.8485L9.88408 33.7532L9.88112 33.7513L9.87717 33.7493C9.84658 33.7317 9.82092 33.7063 9.7923 33.6847C9.76763 33.6652 9.73901 33.6495 9.7173 33.628L9.71533 33.6251C9.68967 33.6006 9.67191 33.5703 9.6502 33.5429C9.63046 33.5165 9.60678 33.494 9.59099 33.4666L9.59 33.4637C9.57224 33.4343 9.56138 33.3991 9.54856 33.3659C9.53573 33.3365 9.51895 33.3091 9.51106 33.2778V33.2769C9.50119 33.2397 9.49921 33.2006 9.49527 33.1624C9.49132 33.1331 9.48343 33.1037 9.48343 33.0744V12.0606L4.89961 9.44303L1.5809 7.55126V7.55029ZM10.2749 1.6872L2.37332 6.19554L10.2729 10.7039L18.1734 6.19456L10.2729 1.6872H10.2749ZM14.384 29.823L18.9678 27.2074V7.55029L15.6491 9.444L11.0643 12.0606V31.7177L14.384 29.823ZM38.7261 7.00741L30.8256 11.5157L38.7261 16.0241L46.6257 11.5148L38.7261 7.00741ZM37.9357 17.3808L33.3509 14.7642L30.0322 12.8705V21.7952L34.616 24.4108L37.9357 26.3055V17.3808ZM19.7563 37.4927L31.3446 30.9351L37.1373 27.6583L29.2427 23.1529L20.153 28.3401L11.8686 33.0675L19.7563 37.4927Z" fill="#FF2D20"/>
</svg>
