<svg width="51" height="50" viewBox="0 0 51 50" fill="none" xmlns="http://www.w3.org/2000/svg">
<path d="M46.2207 38.6716C43.4905 38.6025 41.3745 38.8797 39.5998 39.6417C39.0878 39.8494 38.2686 39.8496 38.2004 40.5079C38.4734 40.7851 38.5076 41.2355 38.7465 41.6164C39.1565 42.3092 39.8727 43.2446 40.5212 43.7299C41.2378 44.284 41.9547 44.8382 42.7053 45.3233C44.0364 46.1548 45.5383 46.6396 46.8351 47.4712C47.5862 47.9558 48.3365 48.5799 49.0874 49.0994C49.4629 49.3762 49.7016 49.827 50.1797 50V49.8963C49.9406 49.5842 49.8723 49.134 49.6336 48.7876C49.2926 48.4411 48.9509 48.1293 48.6096 47.7828C47.6199 46.432 46.3914 45.254 45.0604 44.284C43.9684 43.5218 41.5791 42.4826 41.1356 41.2007C41.1356 41.2007 41.1012 41.1662 41.0673 41.1316C41.818 41.0623 42.7053 40.7851 43.4222 40.5772C44.5825 40.2652 45.6405 40.3347 46.8351 40.0229C47.381 39.8843 47.9271 39.711 48.4731 39.5378V39.2262C47.8591 38.6025 47.4153 37.7712 46.7668 37.1822C45.0263 35.6575 43.1149 34.1681 41.1356 32.921C40.0775 32.2281 38.7122 31.7777 37.586 31.1889C37.1768 30.9808 36.4939 30.877 36.2552 30.5306C35.6406 29.7685 35.2993 28.764 34.8558 27.8631C33.8663 25.9576 32.9104 23.8445 32.0571 21.8354C31.4431 20.4841 31.0677 19.1329 30.3168 17.886C26.8015 11.9966 22.9791 8.42837 17.1091 4.92922C15.8462 4.20183 14.3446 3.89001 12.7405 3.50909C11.8876 3.47424 11.0341 3.40515 10.181 3.3703C9.63488 3.12777 9.08876 2.46968 8.61091 2.15786C6.66595 0.910563 1.64868 -1.79131 0.215315 1.77694C-0.70626 4.0286 1.58061 6.24561 2.36527 7.38916C2.94591 8.18584 3.69643 9.08646 4.10602 9.98728C4.34495 10.5759 4.41301 11.1999 4.65194 11.8234C5.19826 13.3472 5.70985 15.0452 6.42683 16.4657C6.80228 17.1931 7.21168 17.9551 7.68953 18.6134C7.96259 18.9943 8.44025 19.1677 8.54284 19.7912C8.06518 20.4841 8.03085 21.5235 7.7576 22.3895C6.52903 26.3042 7.00708 31.1542 8.74744 34.0295C9.29336 34.8953 10.5904 36.8013 12.3309 36.0735C13.8669 35.45 13.5256 33.4754 13.9689 31.7432C14.0717 31.3271 14.0034 31.0503 14.208 30.7731V30.8426C14.6859 31.8123 15.1635 32.748 15.6073 33.7179C16.6654 35.4152 18.5081 37.1822 20.0439 38.3602C20.8633 38.9834 21.5116 40.0575 22.5356 40.4386V40.3345H22.4671C22.2623 40.0227 21.9551 39.8843 21.6822 39.6415C21.0681 39.0183 20.3852 38.2561 19.9076 37.5631C18.4744 35.6229 17.2113 33.4752 16.0851 31.258C15.5392 30.1843 15.0611 29.0063 14.6176 27.9324C14.4126 27.5163 14.4126 26.893 14.0715 26.6854C13.5595 27.4474 12.8088 28.1057 12.4333 29.0409C11.7852 30.5306 11.7168 32.3667 11.4778 34.2719C11.3413 34.3069 11.4094 34.2719 11.3411 34.3415C10.2493 34.064 9.87381 32.921 9.46402 31.9509C8.44005 29.4914 8.26939 25.542 9.15703 22.7013C9.39595 21.9738 10.4199 19.6875 10.0103 18.9945C9.80554 18.3362 9.1227 17.9551 8.74744 17.4356C8.30391 16.7773 7.82586 15.9462 7.51887 15.2184C6.69969 13.2784 6.2901 11.1304 5.40285 9.1904C4.99326 8.28958 4.27688 7.35451 3.69643 6.52298C3.04811 5.58771 2.33133 4.92922 1.81934 3.82071C1.64888 3.43979 1.40975 2.81615 1.68281 2.40038C1.75108 2.12321 1.88741 2.01947 2.16067 1.95017C2.60439 1.56886 3.86729 2.05391 4.31062 2.2618C5.57352 2.7811 6.63142 3.26656 7.68953 3.99395C8.16719 4.34042 8.67917 4.99871 9.29336 5.17195H10.0101C11.1024 5.41428 12.3308 5.24124 13.3547 5.55286C15.1637 6.14166 16.8017 7.00784 18.2694 7.94331C22.7404 10.8186 26.4259 14.9066 28.9175 19.7912C29.3271 20.5877 29.4976 21.3157 29.873 22.1468C30.59 23.8445 31.4773 25.5766 32.1937 27.2395C32.9104 28.8675 33.5929 30.5306 34.6169 31.8818C35.1289 32.609 37.1764 32.9903 38.098 33.3714C38.7806 33.683 39.8387 33.9604 40.4529 34.3413C41.6132 35.0685 42.7735 35.9005 43.8658 36.6969C44.4119 37.1127 46.1181 37.9789 46.2207 38.6716V38.6716Z" fill="white"/>
<path d="M11.4092 8.56656C10.8291 8.56656 10.4197 8.63625 10.0101 8.73999V8.80929H10.0784C10.3517 9.36364 10.8291 9.74476 11.1702 10.2296C11.4435 10.7838 11.6822 11.3383 11.9555 11.8927C11.9894 11.8578 12.0235 11.8234 12.0235 11.8234C12.5016 11.4767 12.7403 10.9226 12.7403 10.091C12.5355 9.8487 12.5014 9.60617 12.3307 9.36364C12.1261 9.01697 11.6822 8.84393 11.4092 8.56656V8.56656Z" fill="white"/>
</svg>
