<svg width="76" height="74" viewBox="0 0 76 74" fill="none" xmlns="http://www.w3.org/2000/svg">
<path d="M38.0069 43.5241C41.61 43.5241 44.5309 40.6032 44.5309 37.0001C44.5309 33.3969 41.61 30.476 38.0069 30.476C34.4038 30.476 31.4829 33.3969 31.4829 37.0001C31.4829 40.6032 34.4038 43.5241 38.0069 43.5241Z" fill="#61DAFB"/>
<path d="M38.0069 50.3663C57.3407 50.3663 73.0138 44.382 73.0138 37C73.0138 29.618 57.3407 23.6337 38.0069 23.6337C18.6731 23.6337 3 29.618 3 37C3 44.382 18.6731 50.3663 38.0069 50.3663Z" stroke="#61DAFB" stroke-width="5"/>
<path d="M26.4313 43.6831C36.0982 60.4267 49.1173 71.0079 55.5103 67.3169C61.9033 63.6259 59.2493 47.0604 49.5824 30.3169C39.9155 13.5733 26.8964 2.99214 20.5034 6.68314C14.1104 10.3741 16.7645 26.9396 26.4313 43.6831Z" stroke="#61DAFB" stroke-width="5"/>
<path d="M26.4313 30.3168C16.7644 47.0604 14.1104 63.6259 20.5034 67.3168C26.8964 71.0078 39.9155 60.4267 49.5824 43.6831C59.2493 26.9396 61.9033 10.3741 55.5103 6.68312C49.1173 2.99213 36.0982 13.5733 26.4313 30.3168Z" stroke="#61DAFB" stroke-width="5"/>
</svg>
