<svg width="100" height="100" viewBox="0 0 100 100" fill="none" xmlns="http://www.w3.org/2000/svg">
<g clip-path="url(#clip0_3_9267)">
<path d="M50.387 25.5759C49.9506 25.5843 49.5348 25.7635 49.2292 26.0752C48.9235 26.3868 48.7523 26.8059 48.7524 27.2424V58.92C48.7524 59.362 48.928 59.7858 49.2405 60.0984C49.553 60.4109 49.9769 60.5865 50.4189 60.5865C50.8609 60.5865 51.2848 60.4109 51.5973 60.0984C51.9098 59.7858 52.0854 59.362 52.0854 58.92V27.2424C52.0855 27.0211 52.0414 26.8019 51.9558 26.5978C51.8702 26.3936 51.7448 26.2086 51.5869 26.0534C51.429 25.8983 51.2418 25.7762 51.0361 25.6942C50.8305 25.6122 50.6084 25.572 50.387 25.5759ZM75.6034 35.0651C75.3858 35.0714 75.1716 35.1201 74.9727 35.2085L60.6707 41.5923C60.3781 41.7245 60.1299 41.9382 59.9557 42.208C59.7816 42.4777 59.689 42.792 59.689 43.1131C59.689 43.4342 59.7816 43.7484 59.9557 44.0182C60.1299 44.2879 60.3781 44.5017 60.6707 44.6339L74.9727 51.0382C75.1875 51.1348 75.4202 51.1852 75.6557 51.1861C76.0368 51.1849 76.4059 51.0532 76.7015 50.8129C76.9972 50.5726 77.2016 50.2382 77.2807 49.8655C77.3598 49.4927 77.3087 49.1042 77.1361 48.7645C76.9634 48.4249 76.6796 48.1546 76.3319 47.9988L65.4358 43.1154L76.3319 38.2501C76.7342 38.069 77.0485 37.7361 77.2064 37.3241C77.3642 36.9121 77.3526 36.4544 77.1743 36.0509C77.0391 35.7498 76.8177 35.4955 76.5381 35.32C76.2586 35.1446 75.9333 35.0559 75.6034 35.0651ZM24.3784 46.5212C24.1215 46.5166 23.867 46.5714 23.6348 46.6814C23.4027 46.7913 23.199 46.9535 23.0399 47.1552C22.8807 47.3569 22.7704 47.5926 22.7174 47.844C22.6645 48.0954 22.6704 48.3557 22.7346 48.6044C26.6869 63.8057 40.4357 74.4241 56.1629 74.4241C56.6049 74.4241 57.0288 74.2485 57.3413 73.936C57.6539 73.6234 57.8294 73.1995 57.8294 72.7576C57.8294 72.3156 57.6539 71.8917 57.3413 71.5791C57.0288 71.2666 56.6049 71.091 56.1629 71.091C49.2573 71.0938 42.5459 68.8057 37.08 64.5853C31.6141 60.3649 27.7027 54.4506 25.9584 47.7689C25.8667 47.4175 25.6627 47.1057 25.3775 46.8809C25.0923 46.6561 24.7415 46.5283 24.3784 46.5212Z" fill="white"/>
</g>
<defs>
<clipPath id="clip0_3_9267">
<rect width="54.64" height="54.64" fill="white" transform="translate(22.6801 22.68)"/>
</clipPath>
</defs>
</svg>
